<svg width="493" height="330" viewBox="0 0 493 330" fill="none" xmlns="http://www.w3.org/2000/svg">
<g id="image">
<mask id="path-1-outside-1_1228_3434" maskUnits="userSpaceOnUse" x="0" y="-1" width="493" height="331" fill="black">
<rect fill="white" y="-1" width="493" height="331"/>
<path d="M15.0294 214.692C15.8491 249.001 26.8477 275.007 47.7341 291.975C94.9218 330.321 178.911 311.415 212.841 301.507C238.055 294.138 272.021 297.935 307.981 301.953C376.09 309.566 453.297 318.193 472.777 240.395C475.495 229.537 477.023 217.095 477.305 203.384C478.197 160.438 461.365 119.771 428.635 85.7758C382.976 38.3594 311.898 10.1923 251.767 15.6789C184.711 21.7981 41.6009 92.8395 18.3061 185.876C15.9069 195.461 14.8008 205.155 15.0294 214.692Z"/>
</mask>
<path d="M15.0294 214.692C15.8491 249.001 26.8477 275.007 47.7341 291.975C94.9218 330.321 178.911 311.415 212.841 301.507C238.055 294.138 272.021 297.935 307.981 301.953C376.09 309.566 453.297 318.193 472.777 240.395C475.495 229.537 477.023 217.095 477.305 203.384C478.197 160.438 461.365 119.771 428.635 85.7758C382.976 38.3594 311.898 10.1923 251.767 15.6789C184.711 21.7981 41.6009 92.8395 18.3061 185.876C15.9069 195.461 14.8008 205.155 15.0294 214.692Z" fill="#C4C4C4"/>
<path d="M15.0294 214.692C15.8491 249.001 26.8477 275.007 47.7341 291.975C94.9218 330.321 178.911 311.415 212.841 301.507C238.055 294.138 272.021 297.935 307.981 301.953C376.09 309.566 453.297 318.193 472.777 240.395C475.495 229.537 477.023 217.095 477.305 203.384C478.197 160.438 461.365 119.771 428.635 85.7758C382.976 38.3594 311.898 10.1923 251.767 15.6789C184.711 21.7981 41.6009 92.8395 18.3061 185.876C15.9069 195.461 14.8008 205.155 15.0294 214.692Z" stroke="#FFF5F4" stroke-width="30" mask="url(#path-1-outside-1_1228_3434)"/>
</g>
</svg>
