<svg width="463" height="300" viewBox="0 0 463 300" fill="none" xmlns="http://www.w3.org/2000/svg">
<g id="image">
<mask id="path-1-inside-1_1455_3497" fill="white">
<path d="M0.0293928 199.692C0.849145 234.001 11.8477 260.007 32.7341 276.975C79.9218 315.321 163.911 296.416 197.841 286.507C223.055 279.138 257.021 282.935 292.981 286.953C361.09 294.566 438.297 303.193 457.777 225.395C460.495 214.537 462.024 202.095 462.305 188.384C463.197 145.438 446.365 104.771 413.635 70.7758C367.976 23.3594 296.898 -4.8077 236.767 0.678871C169.711 6.79815 26.6009 77.8395 3.30611 170.876C0.906889 180.461 -0.199214 190.155 0.0293928 199.692Z"/>
</mask>
<path d="M0.0293928 199.692C0.849145 234.001 11.8477 260.007 32.7341 276.975C79.9218 315.321 163.911 296.416 197.841 286.507C223.055 279.138 257.021 282.935 292.981 286.953C361.09 294.566 438.297 303.193 457.777 225.395C460.495 214.537 462.024 202.095 462.305 188.384C463.197 145.438 446.365 104.771 413.635 70.7758C367.976 23.3594 296.898 -4.8077 236.767 0.678871C169.711 6.79815 26.6009 77.8395 3.30611 170.876C0.906889 180.461 -0.199214 190.155 0.0293928 199.692Z" fill="#C4C4C4" stroke="#ED6C5B" stroke-width="2" mask="url(#path-1-inside-1_1455_3497)"/>
</g>
</svg>
