<svg width="463" height="300" viewBox="0 0 463 300" fill="none" xmlns="http://www.w3.org/2000/svg">
<g id="Group 55">
<g id="image">
<mask id="path-1-inside-1_1455_3496" fill="white">
<path d="M0.0293928 199.692C0.849145 234.001 11.8477 260.007 32.7341 276.975C79.9218 315.321 163.911 296.416 197.841 286.507C223.055 279.138 257.021 282.935 292.981 286.953C361.09 294.566 438.297 303.193 457.777 225.395C460.495 214.537 462.024 202.095 462.305 188.384C463.197 145.438 446.365 104.771 413.635 70.7758C367.976 23.3594 296.898 -4.8077 236.767 0.678871C169.711 6.79815 26.6009 77.8395 3.30611 170.876C0.906889 180.461 -0.199214 190.155 0.0293928 199.692Z"/>
</mask>
<path d="M0.0293928 199.692C0.849145 234.001 11.8477 260.007 32.7341 276.975C79.9218 315.321 163.911 296.416 197.841 286.507C223.055 279.138 257.021 282.935 292.981 286.953C361.09 294.566 438.297 303.193 457.777 225.395C460.495 214.537 462.024 202.095 462.305 188.384C463.197 145.438 446.365 104.771 413.635 70.7758C367.976 23.3594 296.898 -4.8077 236.767 0.678871C169.711 6.79815 26.6009 77.8395 3.30611 170.876C0.906889 180.461 -0.199214 190.155 0.0293928 199.692Z" stroke="#FFF5F4" stroke-width="28" mask="url(#path-1-inside-1_1455_3496)"/>
</g>
<g id="image_2">
<mask id="path-2-inside-2_1455_3496" fill="white">
<path d="M7.02848 197.701C7.82281 230.981 18.4803 256.207 38.7189 272.665C84.4432 309.861 165.827 291.523 198.706 281.912C223.137 274.764 256.05 278.447 290.895 282.344C356.891 289.729 431.704 298.097 450.58 222.633C453.213 212.101 454.694 200.033 454.967 186.732C455.831 145.075 439.522 105.628 407.807 72.6525C363.564 26.6586 294.69 -0.663467 236.424 4.6585C171.448 10.5942 32.7759 79.5043 10.2036 169.749C7.87876 179.047 6.80696 188.45 7.02848 197.701Z"/>
</mask>
<path d="M7.02848 197.701C7.82281 230.981 18.4803 256.207 38.7189 272.665C84.4432 309.861 165.827 291.523 198.706 281.912C223.137 274.764 256.05 278.447 290.895 282.344C356.891 289.729 431.704 298.097 450.58 222.633C453.213 212.101 454.694 200.033 454.967 186.732C455.831 145.075 439.522 105.628 407.807 72.6525C363.564 26.6586 294.69 -0.663467 236.424 4.6585C171.448 10.5942 32.7759 79.5043 10.2036 169.749C7.87876 179.047 6.80696 188.45 7.02848 197.701Z" stroke="#ED6C5B" stroke-width="4" mask="url(#path-2-inside-2_1455_3496)"/>
</g>
</g>
</svg>
